<svg xmlns="http://www.w3.org/2000/svg" width="240" height="48" viewBox="0 0 240 48" fill="none">
	<g clip-path="url(#clip0_2309_19)">
		<path d="M238.946 0.237793H1.04459C0.767563 0.237793 0.501833 0.345156 0.305944 0.536268C0.110055 0.72738 4.56354e-05 0.986587 4.56354e-05 1.25686V46.734C-0.00124405 46.8686 0.0248134 47.0021 0.0767287 47.1269C0.128644 47.2516 0.205365 47.3651 0.302488 47.4607C0.399611 47.5563 0.515217 47.6323 0.642587 47.6841C0.769957 47.7359 0.906596 47.7626 1.04459 47.7625H3.47533C3.53778 47.7715 3.60151 47.7633 3.6595 47.739C3.7175 47.7147 3.76748 47.6752 3.80387 47.6249C3.84027 47.5746 3.86168 47.5155 3.86572 47.454C3.86976 47.3926 3.85627 47.3312 3.82675 47.2768C2.69207 44.9326 2.52433 42.2525 3.35819 39.791C5.17393 34.3337 18.87 31.8098 18.87 27.705C18.87 23.6002 10.4064 21.2477 10.4064 17.2286C10.4064 13.2095 17.9524 10.5618 27.0702 9.10463C20.9396 10.7047 13.4033 12.9142 13.5693 16.0953C13.7645 20.6001 27.6852 22.562 27.6852 27.6669C27.6852 32.7718 16.3222 35.2099 21.2032 39.7529C23.8292 42.191 28.925 44.9625 35.6315 47.5911C35.8138 47.6663 36.0096 47.7051 36.2075 47.7054H238.995C239.133 47.7054 239.269 47.6787 239.396 47.6269C239.524 47.5751 239.639 47.4992 239.737 47.4036C239.834 47.3079 239.911 47.1945 239.962 47.0697C240.014 46.945 240.04 46.8114 240.039 46.6768V1.25686C240.039 0.986587 239.929 0.72738 239.733 0.536268C239.537 0.345156 239.272 0.237793 238.995 0.237793M237.843 45.3149C237.843 45.3545 237.834 45.3937 237.819 45.4301C237.803 45.4666 237.78 45.4995 237.751 45.5271C237.721 45.5546 237.687 45.5762 237.649 45.5904C237.611 45.6047 237.571 45.6114 237.53 45.6101H34.7041C34.6636 45.6114 34.6232 45.6047 34.5853 45.5904C34.5475 45.5762 34.5129 45.5546 34.4838 45.5271C34.4546 45.4995 34.4315 45.4666 34.4157 45.4301C34.3999 45.3937 34.3917 45.3545 34.3917 45.3149V2.68546C34.3917 2.64587 34.3999 2.60669 34.4157 2.57023C34.4315 2.53378 34.4546 2.50079 34.4838 2.47325C34.5129 2.44571 34.5475 2.42416 34.5853 2.4099C34.6232 2.39563 34.6636 2.38894 34.7041 2.39022H237.481C237.522 2.38894 237.562 2.39563 237.6 2.4099C237.638 2.42416 237.673 2.44571 237.702 2.47325C237.731 2.50079 237.754 2.53378 237.77 2.57023C237.786 2.60669 237.794 2.64587 237.794 2.68546L237.843 45.3149Z" fill="#304E71"/>
		<path d="M60.5636 25.5147L50.9187 13.4478H44.8564V36.2768H51.2408V23.7527L61.2567 36.2768H66.948V13.4478H60.5636V25.5147Z" fill="#304E71"/>
		<path d="M85.5156 20.5241C84.7371 19.7902 83.7948 19.2425 82.7627 18.924C81.4257 18.524 80.0313 18.3375 78.6333 18.3717C77.2699 18.3531 75.9084 18.4776 74.5723 18.7431C73.4588 18.966 72.3677 19.2847 71.3118 19.6955L72.6199 24.0575C73.3911 23.7615 74.1841 23.5227 74.9921 23.3432C75.8486 23.1641 76.7227 23.0779 77.5986 23.086C78.5681 23.0098 79.5337 23.2732 80.3222 23.8289C80.6218 24.097 80.8569 24.4264 81.0105 24.7936C81.1641 25.1609 81.2324 25.5567 81.2105 25.9528V26.3242C79.8094 25.8704 78.3427 25.6389 76.8664 25.6385C75.8775 25.6221 74.8913 25.7439 73.9378 26.0004C73.1352 26.2058 72.3799 26.558 71.712 27.0385C71.0983 27.4958 70.6062 28.0903 70.277 28.7719C69.9157 29.5251 69.7385 30.35 69.7596 31.1814V31.2481C69.7411 32.0529 69.901 32.852 70.2282 33.591C70.5224 34.243 70.9627 34.8223 71.5168 35.2863C72.0892 35.7595 72.7531 36.1157 73.4692 36.3339C74.2445 36.5802 75.0554 36.7024 75.8707 36.6958C76.9359 36.7206 77.9933 36.5123 78.9652 36.0863C79.8062 35.6987 80.5595 35.1516 81.1812 34.4767V36.2958H87.468V26.1337C87.4905 25.0351 87.339 23.9396 87.0189 22.886C86.7336 21.9882 86.2198 21.1756 85.5254 20.5241M81.2886 29.8766C81.3076 30.2707 81.2399 30.6641 81.0901 31.0304C80.9402 31.3968 80.7117 31.7275 80.4198 32.0005C79.7938 32.5383 78.9785 32.8182 78.1452 32.7815C77.5674 32.802 77.0005 32.6233 76.5443 32.2767C76.33 32.1063 76.1601 31.8889 76.0481 31.6424C75.9362 31.3958 75.8854 31.1269 75.9 30.8576V30.7909C75.8884 30.4873 75.9515 30.1853 76.084 29.9103C76.2164 29.6352 76.4144 29.3951 76.6614 29.21C77.2836 28.7717 78.0434 28.5594 78.8091 28.61C79.265 28.6052 79.7202 28.6499 80.166 28.7433C80.5509 28.812 80.9272 28.9205 81.2886 29.0671V29.8766Z" fill="#304E71"/>
		<path d="M97.7959 14.1616H91.4115V18.6284H89.2737V23.619H91.4115V30.7905C91.4115 32.9049 91.9484 34.4001 93.0223 35.2954C94.311 36.2499 95.9074 36.7228 97.5226 36.6287C98.3446 36.6352 99.1644 36.5424 99.9631 36.3525C100.643 36.1887 101.299 35.9423 101.915 35.6192V30.762C101.541 30.9338 101.153 31.074 100.754 31.181C100.351 31.2946 99.9335 31.3523 99.5141 31.3524C99.2712 31.3889 99.0229 31.3678 98.7902 31.291C98.5574 31.2142 98.3471 31.084 98.1767 30.9113C98.0064 30.7385 97.8811 30.5284 97.8114 30.2985C97.7418 30.0687 97.7297 29.8258 97.7764 29.5905V23.619H101.984V18.6284H97.7764L97.7959 14.1616Z" fill="#304E71"/>
		<path d="M111.326 12.4668H104.678V17.0288H111.326V12.4668Z" fill="#304E71"/>
		<path d="M111.199 18.6284H104.814V36.2669H111.199V18.6284Z" fill="#304E71"/>
		<path d="M126.34 18.6284L122.864 28.9334L119.389 18.6284H112.702L119.926 36.4002H125.705L132.929 18.6284H126.34Z" fill="#304E71"/>
		<path d="M148.863 21.1238C148.086 20.2271 147.116 19.5085 146.022 19.019C144.743 18.4718 143.357 18.2052 141.961 18.2381C140.735 18.2175 139.518 18.4456 138.387 18.9079C137.256 19.3703 136.236 20.0567 135.391 20.9238C134.57 21.7758 133.927 22.7753 133.497 23.8667C133.05 25.0164 132.825 26.2371 132.834 27.4668V27.5335C132.819 28.8185 133.064 30.0938 133.556 31.2859C134.012 32.3641 134.693 33.3373 135.557 34.1431C136.438 34.9674 137.476 35.6147 138.613 36.0479C139.861 36.5047 141.185 36.7307 142.518 36.7146C144.018 36.7652 145.51 36.4659 146.868 35.8414C148.226 35.2169 149.412 34.2854 150.327 33.1241L146.813 30.2669C146.256 30.8392 145.594 31.3044 144.86 31.6383C144.205 31.9298 143.492 32.0762 142.771 32.0669C141.875 32.0987 140.992 31.8483 140.253 31.3526C139.533 30.8117 139.04 30.0327 138.867 29.1621H150.962C150.962 28.943 150.962 28.724 150.962 28.5145V27.8859C150.972 26.6342 150.788 25.3883 150.415 24.1906C150.067 23.0726 149.5 22.0311 148.746 21.1238M138.73 26.0001C138.857 25.1396 139.229 24.3312 139.804 23.6667C140.063 23.3842 140.383 23.1602 140.74 23.0105C141.098 22.8608 141.484 22.789 141.873 22.8001C142.272 22.7894 142.669 22.8611 143.037 23.0104C143.406 23.1598 143.738 23.3835 144.011 23.6667C144.591 24.3183 144.935 25.1386 144.987 26.0001H138.73Z" fill="#304E71"/>
		<path d="M171.188 15.5524C170.279 14.8359 169.234 14.3019 168.113 13.9809C166.81 13.6129 165.458 13.4332 164.101 13.4476H154.075V36.3052H160.557V29.7527H163.769C165.128 29.761 166.482 29.5847 167.791 29.2288C168.95 28.9193 170.035 28.3884 170.983 27.6669C171.874 26.9753 172.589 26.0919 173.072 25.0859C173.596 23.9729 173.853 22.7579 173.824 21.5334V21.4668C173.845 20.3021 173.612 19.1464 173.141 18.0762C172.7 17.0979 172.032 16.2335 171.188 15.5524ZM167.342 21.8096C167.363 22.222 167.285 22.6335 167.116 23.0118C166.947 23.3902 166.69 23.7252 166.366 23.9906C165.584 24.5643 164.618 24.8479 163.642 24.7907H160.567V18.7048H163.613C164.593 18.6428 165.565 18.9118 166.366 19.4667C166.698 19.74 166.96 20.086 167.129 20.4766C167.299 20.8671 167.372 21.2912 167.342 21.7144V21.8096Z" fill="#304E71"/>
		<path d="M190.077 20.5241C189.298 19.7902 188.356 19.2425 187.324 18.9241C185.987 18.524 184.592 18.3375 183.194 18.3717C180.682 18.3191 178.187 18.7865 175.873 19.7431L177.181 24.1051C177.952 23.8092 178.745 23.5704 179.553 23.3908C180.41 23.2118 181.284 23.1255 182.159 23.1337C183.129 23.06 184.094 23.3231 184.883 23.8765C185.183 24.1446 185.418 24.4741 185.571 24.8413C185.725 25.2085 185.793 25.6044 185.771 26.0004V26.3242C185.134 26.1177 184.481 25.9585 183.819 25.848C183.017 25.7041 182.204 25.6339 181.388 25.6385C180.399 25.6217 179.413 25.7436 178.46 26.0004C177.657 26.2058 176.902 26.5581 176.234 27.0385C175.62 27.4959 175.128 28.0903 174.799 28.7719C174.438 29.5252 174.26 30.35 174.282 31.1814V31.2481C174.258 32.0533 174.418 32.8534 174.75 33.591C175.042 34.2445 175.482 34.8244 176.039 35.2863C176.61 35.7604 177.275 36.1167 177.991 36.3339C178.77 36.5794 179.584 36.7016 180.402 36.6958C181.4 36.7307 182.394 36.5499 183.312 36.1662C184.23 35.7826 185.05 35.2057 185.713 34.4767V36.2958H192V26.1337C192.022 25.0351 191.871 23.9396 191.551 22.886C191.265 21.9882 190.751 21.1756 190.057 20.5241M185.82 29.8767C185.839 30.2707 185.772 30.6641 185.622 31.0304C185.472 31.3968 185.243 31.7276 184.951 32.0005C184.326 32.5383 183.51 32.8182 182.677 32.7815C182.096 32.8018 181.526 32.6233 181.066 32.2767C180.855 32.1043 180.688 31.8864 180.577 31.6401C180.467 31.3938 180.417 31.126 180.432 30.8576V30.791C180.424 30.4888 180.487 30.1888 180.618 29.9146C180.748 29.6403 180.942 29.3992 181.183 29.21C181.81 28.7732 182.572 28.5612 183.341 28.61C183.797 28.6057 184.252 28.6505 184.698 28.7433C185.082 28.8134 185.458 28.9219 185.82 29.0671V29.8767Z" fill="#304E71"/>
		<path d="M202.357 14.1621H195.973V18.6289H193.835V23.6194H195.973V30.791C195.973 32.9053 196.51 34.4006 197.584 35.2959C198.872 36.2504 200.469 36.7233 202.084 36.6292C202.906 36.6363 203.726 36.5435 204.524 36.353C205.204 36.1891 205.86 35.9428 206.477 35.6197V30.7624C206.099 30.9343 205.707 31.0745 205.305 31.1815C204.906 31.2957 204.492 31.3534 204.075 31.3529C203.833 31.3893 203.584 31.3683 203.352 31.2915C203.119 31.2147 202.908 31.0845 202.738 30.9118C202.568 30.739 202.442 30.5289 202.373 30.299C202.303 30.0692 202.291 29.8263 202.338 29.591V23.6194H206.545V18.6289H202.338L202.357 14.1621Z" fill="#304E71"/>
		<path d="M221.091 18.2381C219.961 18.2 218.845 18.4954 217.889 19.0857C217.068 19.6206 216.343 20.2834 215.742 21.0477V12.4761H209.357V36.2861H215.742V26.7621C215.686 25.9566 215.952 25.1614 216.484 24.543C216.736 24.2912 217.041 24.0947 217.378 23.9666C217.715 23.8386 218.075 23.7818 218.436 23.8001C218.774 23.7881 219.111 23.8483 219.423 23.9767C219.735 24.105 220.015 24.2983 220.242 24.543C220.752 25.1711 221.003 25.9627 220.945 26.7621V36.2861H227.319V24.7335C227.423 23.0008 226.839 21.2959 225.689 19.9715C225.103 19.3819 224.393 18.9228 223.607 18.6253C222.822 18.3278 221.981 18.199 221.14 18.2476" fill="#304E71"/>
	</g>
	<defs>
		<clipPath id="clip0_2309_19">
			<rect width="240" height="47.5248" fill="white" transform="translate(0 0.237793)"/>
		</clipPath>
	</defs>
</svg>